<svg fill="none" height="18" viewBox="0 0 18 18" width="18" xmlns="http://www.w3.org/2000/svg"><path d="m15.8605 9c0-.62132-.5036-1.125-1.125-1.125h-8.44305l2.63996-2.63995c.26205-.26206.36745-.62071.31721-.96097-.03392-.23072-.13983-.45264-.31721-.63002-.43944-.43944-1.15182-.43918-1.59099 0l-5.09097 5.09096c-.14644.14645-.14644.38388 0 .53033l5.09123 5.09125c.34103.341.84624.4174 1.26082.2291.11964-.0543.23176-.1307.33016-.2291.43918-.4392.43944-1.1516 0-1.591l-2.64057-2.6406h8.44341c.6214 0 1.125-.50368 1.125-1.125z" fill="#fff"/></svg>