<svg width="18" height="18" viewBox="0 0 18 18" fill="none" xmlns="http://www.w3.org/2000/svg">
<g id="Icon">
<path id="Union" d="M2.14062 9C2.14062 8.37868 2.6443 7.875 3.26563 7.875L11.7087 7.875L9.06875 5.23505C8.8067 4.97299 8.7013 4.61434 8.75154 4.27408C8.78546 4.04336 8.89137 3.82144 9.06875 3.64406C9.50819 3.20462 10.2206 3.20488 10.6597 3.64406L15.7507 8.73502C15.8972 8.88147 15.8972 9.1189 15.7507 9.26535L10.6595 14.3566C10.3184 14.6976 9.81324 14.774 9.39866 14.5857C9.27902 14.5314 9.1669 14.455 9.0685 14.3566C8.62931 13.9174 8.62906 13.205 9.0685 12.7656L11.7091 10.125L3.26562 10.125C2.6443 10.125 2.14062 9.62132 2.14062 9Z" fill="white"/>
</g>
</svg>
