<svg width="30" height="30" viewBox="0 0 30 30" fill="none" xmlns="http://www.w3.org/2000/svg">
<g id="coin-svgrepo-com 2">
<g clip-path="url(#clip0_216_2939)">
<path id="Vector" d="M15 30C6.72902 30 0 23.271 0 15C0 6.72902 6.72902 0 15 0C23.271 0 30 6.72902 30 15C30 23.271 23.271 30 15 30Z" fill="#FFDA44"/>
<path id="Vector_2" d="M15 0V0.326074V30C23.271 30 30 23.271 30 15C30 6.72902 23.271 0 15 0Z" fill="#FFA733"/>
<path id="Vector_3" d="M15 25.7609C9.06644 25.7609 4.23914 20.9333 4.23914 15C4.23914 9.06673 9.06638 4.23914 15 4.23914C20.9336 4.23914 25.7609 9.06673 25.7609 15C25.7609 20.9333 20.9335 25.7609 15 25.7609Z" fill="#EE8700"/>
<path id="Vector_4" d="M25.7609 15C25.7609 9.06673 20.9336 4.23914 15 4.23914V25.7609C20.9336 25.7609 25.7609 20.9333 25.7609 15Z" fill="#CC7400"/>
<path id="G" d="M17.564 12.8734C17.2088 12.8734 16.9229 12.6103 16.7412 12.3051C16.6441 12.1381 16.5229 11.9975 16.3773 11.8835C16.2353 11.7653 16.069 11.6777 15.8784 11.6207C15.6913 11.5596 15.4851 11.529 15.2599 11.529C14.7748 11.529 14.3607 11.6655 14.0177 11.9385C13.6781 12.2114 13.4182 12.6045 13.238 13.1179C13.0613 13.6312 12.973 14.2504 12.973 14.9755C12.973 15.7088 13.0579 16.3362 13.2277 16.8577C13.3974 17.3791 13.6504 17.7784 13.9865 18.0554C14.3226 18.3324 14.7401 18.4709 15.2391 18.4709C15.6791 18.4709 16.0447 18.3956 16.3358 18.2448C16.6303 18.0941 16.8503 17.8802 16.9958 17.6032C17.0382 17.5226 17.0743 17.4341 17.1042 17.3425C17.2187 16.9921 16.9146 16.6866 16.5459 16.6866C16.1773 16.6866 15.8784 16.3877 15.8784 16.019V15.4766C15.8784 14.8084 16.4201 14.2667 17.0883 14.2667H18.2645C19.223 14.2667 20 15.0437 20 16.0022C20 17.1428 19.7938 18.1185 19.3815 18.9292C18.9726 19.7359 18.4078 20.3551 17.6871 20.7869C16.9699 21.2147 16.1469 21.4286 15.2183 21.4286C14.1823 21.4286 13.2727 21.1699 12.4896 20.6525C11.7065 20.1351 11.0949 19.3977 10.6549 18.4404C10.2183 17.483 10 16.3444 10 15.0244C10 13.9897 10.1334 13.073 10.4002 12.2746C10.6705 11.4761 11.0447 10.8019 11.5229 10.2519C12.001 9.69784 12.5537 9.28027 13.1809 8.99917C13.808 8.714 14.4802 8.57141 15.1975 8.57141C15.8281 8.57141 16.4137 8.67733 16.9543 8.88917C17.4983 9.09694 17.9782 9.39433 18.394 9.78135C18.8132 10.1643 19.1511 10.6185 19.4075 11.1441C19.426 11.1821 19.4441 11.2204 19.4616 11.2589C19.8335 12.0785 19.1006 12.8734 18.2006 12.8734H17.564Z" fill="#FFDA44"/>
<path id="Intersect" fill-rule="evenodd" clip-rule="evenodd" d="M15 21.4247C15.0721 21.4273 15.1449 21.4286 15.2183 21.4286C16.1469 21.4286 16.9699 21.2147 17.6871 20.7869C18.4078 20.3551 18.9726 19.7359 19.3815 18.9292C19.7938 18.1185 20 17.1428 20 16.0022C20 15.0437 19.223 14.2667 18.2645 14.2667H17.0883C16.4201 14.2667 15.8784 14.8084 15.8784 15.4766V16.019C15.8784 16.3877 16.1773 16.6866 16.5459 16.6866C16.9146 16.6866 17.2187 16.9921 17.1042 17.3425C17.0743 17.4341 17.0382 17.5226 16.9958 17.6032C16.8503 17.8802 16.6303 18.0941 16.3358 18.2448C16.0447 18.3956 15.6791 18.4709 15.2391 18.4709C15.1572 18.4709 15.0775 18.4672 15 18.4597V21.4247ZM15 11.5428C15.0842 11.5336 15.1709 11.529 15.2599 11.529C15.4851 11.529 15.6913 11.5596 15.8784 11.6207C16.069 11.6777 16.2353 11.7653 16.3773 11.8835C16.5229 11.9975 16.6441 12.1381 16.7412 12.3051C16.9229 12.6103 17.2088 12.8734 17.564 12.8734H18.2006C19.1006 12.8734 19.8335 12.0785 19.4616 11.2589C19.4441 11.2204 19.426 11.1821 19.4075 11.1441C19.1511 10.6185 18.8132 10.1643 18.394 9.78135C17.9782 9.39433 17.4983 9.09694 16.9543 8.88917C16.4137 8.67733 15.8281 8.57141 15.1975 8.57141C15.1313 8.57141 15.0655 8.57263 15 8.57506V11.5428Z" fill="#FFA733"/>
</g>
</g>
<defs>
<clipPath id="clip0_216_2939">
<rect width="30" height="30" rx="15" fill="white"/>
</clipPath>
</defs>
</svg>
