<svg width="20" height="20" viewBox="0 0 20 20" fill="none" xmlns="http://www.w3.org/2000/svg">
<g id="info-svgrepo-com (1) 1">
<path id="Vector" d="M7.625 15.2572H8.25V10.7428H7.625C7.27981 10.7428 7 10.463 7 10.1178V8.625C7 8.27981 7.27981 8 7.625 8H11.125C11.4702 8 11.75 8.27981 11.75 8.625V15.2572H12.375C12.7202 15.2572 13 15.537 13 15.8822V17.375C13 17.7202 12.7202 18 12.375 18H7.625C7.27981 18 7 17.7202 7 17.375V15.8822C7 15.537 7.27981 15.2572 7.625 15.2572ZM10 2C8.75734 2 7.75 3.00734 7.75 4.25C7.75 5.49266 8.75734 6.5 10 6.5C11.2427 6.5 12.25 5.49266 12.25 4.25C12.25 3.00734 11.2426 2 10 2Z" fill="#EDBBB0"/>
</g>
</svg>
