<svg width="64" height="75" viewBox="0 0 64 75" fill="none" xmlns="http://www.w3.org/2000/svg">
<g id="Star">
<g id="Vector">
<path d="M31.6676 0L32.6673 28.9157C32.6673 30.3614 30.6255 30.3614 30.6679 28.9157L31.6676 0Z" fill="#A08D71"/>
<path d="M31.6676 75L32.6673 46.0843C32.6673 44.6386 30.6255 44.6386 30.6679 46.0843L31.6676 75Z" fill="#A08D71"/>
<path d="M45.4332 14.2501L36.2275 31.1945C35.7455 32.0292 34.8614 31.5187 35.3617 30.6946L45.4332 14.2501Z" fill="#A08D71"/>
<path d="M51.2404 26.4332L38.9695 34.0949C38.3435 34.4564 37.833 33.5723 38.4697 33.2292L51.2404 26.4332Z" fill="#A08D71"/>
<path d="M18.0572 14.2501L27.2629 31.1945C27.7448 32.0292 28.6289 31.5187 28.1286 30.6946L18.0572 14.2501Z" fill="#A08D71"/>
<path d="M12.2499 26.4332L24.5208 34.0949C25.1469 34.4564 25.6573 33.5723 25.0207 33.2292L12.2499 26.4332Z" fill="#A08D71"/>
<path d="M45.4332 61.1159L36.2275 44.1716C35.7455 43.3368 34.8614 43.8473 35.3617 44.6714L45.4332 61.1159Z" fill="#A08D71"/>
<path d="M51.2404 48.9329L38.9695 41.2711C38.3435 40.9096 37.833 41.7938 38.4697 42.1368L51.2404 48.9329Z" fill="#A08D71"/>
<path d="M18.0572 61.1159L27.2629 44.1716C27.7448 43.3368 28.6289 43.8473 28.1286 44.6714L18.0572 61.1159Z" fill="#A08D71"/>
<path d="M12.2499 48.9329L24.5208 41.2711C25.1469 40.9096 25.6573 41.7938 25.0207 42.1368L12.2499 48.9329Z" fill="#A08D71"/>
<path d="M0 37.4997L24.0964 36.5C25.3012 36.5 25.3012 38.5418 24.0964 38.4993L0 37.4997Z" fill="#A08D71"/>
<path d="M64 37.4997L39.9036 36.5C38.6988 36.5 38.6988 38.5418 39.9036 38.4993L64 37.4997Z" fill="#A08D71"/>
</g>
</g>
</svg>
