<svg width="36" height="36" viewBox="0 0 36 36" fill="none" xmlns="http://www.w3.org/2000/svg">
<g id="idea">
<path id="secondary (Stroke)" fill-rule="evenodd" clip-rule="evenodd" d="M18 3C18.8284 3 19.5 3.67157 19.5 4.5V6C19.5 6.82843 18.8284 7.5 18 7.5C17.1716 7.5 16.5 6.82843 16.5 6V4.5C16.5 3.67157 17.1716 3 18 3ZM6.33433 7.83434C6.92012 7.24855 7.86986 7.24855 8.45565 7.83434L9.52065 8.89934C10.1064 9.48513 10.1064 10.4349 9.52065 11.0207C8.93486 11.6064 7.98512 11.6064 7.39933 11.0207L6.33433 9.95566C5.74854 9.36987 5.74854 8.42013 6.33433 7.83434ZM29.6656 7.83434C30.2514 8.42013 30.2514 9.36987 29.6656 9.95566L28.6006 11.0207C28.0149 11.6064 27.0651 11.6064 26.4793 11.0207C25.8935 10.4349 25.8935 9.48513 26.4793 8.89934L27.5443 7.83434C28.1301 7.24855 29.0799 7.24855 29.6656 7.83434Z" fill="#F6DDD7"/>
<path id="primary (Stroke)" fill-rule="evenodd" clip-rule="evenodd" d="M12.5987 12.3222C14.3881 10.9799 16.6133 10.352 18.8404 10.561C21.0676 10.77 23.1371 11.8009 24.6455 13.4528C26.1539 15.1046 26.9931 17.259 26.9995 19.4959L26.9995 19.4991C27.001 21.5503 26.2934 23.539 24.9968 25.1284L24.9957 25.1298C24.35 25.9192 23.998 26.9081 23.9995 27.928L23.9995 30.0002C23.9995 30.7958 23.6834 31.5589 23.1208 32.1215C22.5582 32.6841 21.7951 33.0002 20.9995 33.0002H14.9995C14.2038 33.0002 13.4408 32.6841 12.8782 32.1215C12.3156 31.5589 11.9995 30.7958 11.9995 30.0002V27.9302L11.9995 27.9265C12.0021 26.8803 11.6401 25.8659 10.9757 25.0577C10.9733 25.0547 10.9708 25.0516 10.9683 25.0486C10.159 24.0482 9.57806 22.8831 9.26599 21.6348C8.95394 20.3866 8.91827 19.0853 9.16149 17.8219C9.16151 17.8218 9.16153 17.8217 9.16155 17.8216C9.58407 15.625 10.8094 13.6645 12.5987 12.3222ZM18.5601 13.5479C17.0754 13.4085 15.5919 13.8271 14.399 14.722C13.2061 15.6169 12.3891 16.924 12.1075 18.3885L12.1074 18.3888C11.9468 19.2233 11.9703 20.0828 12.1764 20.9072C12.3821 21.7299 12.7647 22.4979 13.2974 23.1577C14.4016 24.5034 15.0034 26.1912 14.9995 27.932V30.0002H20.9995V27.9309C20.9973 26.2181 21.5886 24.5574 22.6727 23.2314C23.5314 22.1786 24.0001 20.8615 23.9995 19.503C23.9949 18.0122 23.4354 16.5766 22.4302 15.4757C21.4246 14.3745 20.0449 13.6872 18.5601 13.5479Z" fill="#F6DDD7"/>
</g>
</svg>
