<svg width="24" height="24" viewBox="0 0 24 24" fill="none" xmlns="http://www.w3.org/2000/svg">
<g id="home_FILL0_wght400_GRAD0_opsz24 1">
<path id="Vector" d="M4.5 19.6H8.25V13.6C8.25 13.26 8.36979 12.975 8.60938 12.745C8.84896 12.515 9.14583 12.4 9.5 12.4H14.5C14.8542 12.4 15.151 12.515 15.3906 12.745C15.6302 12.975 15.75 13.26 15.75 13.6V19.6H19.5V8.8L12 3.4L4.5 8.8V19.6ZM2 19.6V8.8C2 8.42 2.08854 8.06 2.26562 7.72C2.44271 7.38 2.6875 7.1 3 6.88L10.5 1.48C10.9375 1.16 11.4375 1 12 1C12.5625 1 13.0625 1.16 13.5 1.48L21 6.88C21.3125 7.1 21.5573 7.38 21.7344 7.72C21.9115 8.06 22 8.42 22 8.8V19.6C22 20.26 21.7552 20.825 21.2656 21.295C20.776 21.765 20.1875 22 19.5 22H14.5C14.1458 22 13.849 21.885 13.6094 21.655C13.3698 21.425 13.25 21.14 13.25 20.8V14.8H10.75V20.8C10.75 21.14 10.6302 21.425 10.3906 21.655C10.151 21.885 9.85417 22 9.5 22H4.5C3.8125 22 3.22396 21.765 2.73438 21.295C2.24479 20.825 2 20.26 2 19.6Z" fill="#D15439"/>
</g>
</svg>
