<svg width="28" height="28" viewBox="0 0 28 28" fill="none" xmlns="http://www.w3.org/2000/svg">
<g id="setting-gear-cogwheel-svgrepo-com 1">
<path id="Vector" fill-rule="evenodd" clip-rule="evenodd" d="M21.294 4.73723L21.2914 4.7381C20.6902 5.08548 19.9482 5.08548 19.3471 4.7381C18.746 4.3916 18.375 3.74935 18.375 3.0546V3.05198C18.375 2.50773 18.1589 1.98623 17.7739 1.60123C17.3897 1.2171 16.8682 1.00098 16.324 1.00098C15.0316 1.00098 12.9684 1.00098 11.676 1.00098C11.1317 1.00098 10.6102 1.2171 10.2261 1.60123C9.84111 1.98623 9.62498 2.50773 9.62498 3.05198V3.0546C9.62498 3.74935 9.25398 4.3916 8.65286 4.7381C8.05173 5.08548 7.30973 5.08548 6.70861 4.7381L6.70598 4.73723C6.23523 4.4651 5.67523 4.3916 5.14936 4.53248C4.62436 4.67248 4.17636 5.01635 3.90423 5.48798C3.25848 6.6071 2.22598 8.39385 1.58023 9.51298C1.30811 9.98373 1.23461 10.5437 1.37548 11.0696C1.51636 11.5946 1.86023 12.0426 2.33098 12.3147L2.33361 12.3165C2.93473 12.6639 3.30573 13.3052 3.30573 14C3.30573 14.6947 2.93473 15.3361 2.33361 15.6835L2.33098 15.6852C1.86023 15.9574 1.51636 16.4054 1.37548 16.9304C1.23461 17.4562 1.30811 18.0162 1.58023 18.487C2.22598 19.6061 3.25848 21.3929 3.90423 22.512C4.17636 22.9836 4.62436 23.3275 5.14936 23.4675C5.67523 23.6084 6.23523 23.5349 6.70598 23.2627L6.70861 23.2619C7.30973 22.9145 8.05173 22.9145 8.65286 23.2619C9.25398 23.6084 9.62498 24.2506 9.62498 24.9454V24.948C9.62498 25.4922 9.84111 26.0137 10.2261 26.3987C10.6102 26.7829 11.1317 26.999 11.676 26.999C12.9684 26.999 15.0316 26.999 16.324 26.999C16.8682 26.999 17.3897 26.7829 17.7739 26.3987C18.1589 26.0137 18.375 25.4922 18.375 24.948V24.9454C18.375 24.2506 18.746 23.6084 19.3471 23.2619C19.9482 22.9145 20.6902 22.9145 21.2914 23.2619L21.294 23.2627C21.7647 23.5349 22.3247 23.6084 22.8506 23.4675C23.3756 23.3275 23.8236 22.9836 24.0957 22.512C24.7415 21.3929 25.774 19.6061 26.4197 18.487C26.6919 18.0162 26.7654 17.4562 26.6245 16.9304C26.4836 16.4054 26.1397 15.9574 25.669 15.6852L25.6664 15.6835C25.0652 15.3361 24.6942 14.6947 24.6942 14C24.6942 13.3052 25.0652 12.6639 25.6664 12.3165L25.669 12.3147C26.1397 12.0426 26.4836 11.5946 26.6245 11.0696C26.7654 10.5437 26.6919 9.98373 26.4197 9.51298C25.774 8.39385 24.7415 6.6071 24.0957 5.48798C23.8236 5.01635 23.3756 4.67248 22.8506 4.53248C22.3247 4.3916 21.7647 4.4651 21.294 4.73723ZM14 7.87498C10.6199 7.87498 7.87498 10.6199 7.87498 14C7.87498 17.3801 10.6199 20.125 14 20.125C17.3801 20.125 20.125 17.3801 20.125 14C20.125 10.6199 17.3801 7.87498 14 7.87498Z" fill="#EDBBB0"/>
</g>
</svg>
