<svg width="20" height="20" viewBox="0 0 20 20" fill="none" xmlns="http://www.w3.org/2000/svg">
<g id="Layer 2">
<g id="Q3 icons">
<path id="Vector" d="M11.7916 2.49999C11.7259 2.50523 11.6618 2.52344 11.6032 2.55355C11.5445 2.58366 11.4923 2.62508 11.4497 2.67543C11.4071 2.72578 11.3749 2.78405 11.3549 2.84691C11.335 2.90976 11.3276 2.97595 11.3333 3.04165V7.45832C4.99998 8.08332 0.916646 12.4167 0.833313 16.7917C0.833313 17.0417 0.916646 17.2083 1.08331 17.2083C1.24998 17.2083 1.37498 17.0833 1.54165 16.75C2.54165 14.5 4.79165 13.2083 11.3333 12.9167V16.9583C11.3276 17.024 11.335 17.0902 11.3549 17.1531C11.3749 17.2159 11.4071 17.2742 11.4497 17.3245C11.4923 17.3749 11.5445 17.4163 11.6032 17.4464C11.6618 17.4765 11.7259 17.4947 11.7916 17.5C11.8569 17.5037 11.922 17.4902 11.9805 17.461C12.039 17.4318 12.0888 17.3877 12.125 17.3333L19 10.4583C19.1025 10.3437 19.1591 10.1954 19.1591 10.0417C19.1591 9.88792 19.1025 9.73957 19 9.62499L12.125 2.66665C12.0888 2.61223 12.039 2.56821 11.9805 2.53898C11.922 2.50974 11.8569 2.4963 11.7916 2.49999Z" fill="#FF6C3D"/>
</g>
</g>
</svg>
