<svg width="30" height="30" viewBox="0 0 30 30" fill="none" xmlns="http://www.w3.org/2000/svg">
<path d="M15 30C6.72902 30 0 23.271 0 15C0 6.72902 6.72902 0 15 0C23.271 0 30 6.72902 30 15C30 23.271 23.271 30 15 30Z" fill="#EDBBB0"/>
<path d="M14.9991 25.7611C9.06559 25.7611 4.23828 20.9335 4.23828 15.0002C4.23828 9.06696 9.06553 4.23937 14.9991 4.23937C20.9328 4.23937 25.76 9.06696 25.76 15.0002C25.76 20.9335 20.9327 25.7611 14.9991 25.7611Z" fill="#D15439"/>
<path d="M17.392 12.8735C17.025 12.8735 16.7267 12.6056 16.5159 12.3052C16.4016 12.1382 16.2587 11.9976 16.0871 11.8836C15.9197 11.7654 15.7237 11.6778 15.4991 11.6208C15.2786 11.5597 15.0356 11.5291 14.7701 11.5291C14.1984 11.5291 13.7104 11.6656 13.3061 11.9386C12.9059 12.2115 12.5996 12.6046 12.3873 13.1179C12.179 13.6313 12.0748 14.2505 12.0748 14.9756C12.0748 15.7089 12.1749 16.3363 12.375 16.8578C12.5751 17.3792 12.8732 17.7785 13.2693 18.0555C13.6655 18.3325 14.1576 18.471 14.7456 18.471C15.2643 18.471 15.6951 18.3957 16.0381 18.2449C16.3852 18.0942 16.6446 17.8803 16.8161 17.6033C16.8465 17.5542 16.8741 17.5022 16.8991 17.4483C17.0818 17.0541 16.7203 16.6867 16.2858 16.6867C15.8513 16.6867 15.4991 16.3344 15.4991 15.8999V15.4767C15.4991 14.8085 16.0408 14.2668 16.709 14.2668H18.6212C19.5797 14.2668 20.3567 15.0438 20.3567 16.0023C20.3567 17.1429 20.1137 18.1186 19.6277 18.9293C19.1459 19.736 18.4802 20.3552 17.6308 20.787C16.7855 21.2148 15.8156 21.4286 14.7211 21.4286C13.5001 21.4286 12.4281 21.17 11.5052 20.6526C10.5822 20.1352 9.86145 19.3978 9.34281 18.4405C8.82826 17.4831 8.57098 16.3445 8.57098 15.0245C8.57098 13.9898 8.72821 13.0731 9.04266 12.2747C9.36119 11.4762 9.80224 10.802 10.3658 10.252C10.9294 9.69793 11.5807 9.28036 12.3199 8.99926C13.059 8.71409 13.8513 8.57151 14.6966 8.57151C15.4399 8.57151 16.13 8.67743 16.7671 8.88927C17.4082 9.09704 17.9738 9.39443 18.4639 9.78145C18.958 10.1644 19.3562 10.6186 19.6584 11.1442C20.1458 11.9917 19.3588 12.8735 18.3811 12.8735H17.392Z" fill="#EDBBB0"/>
</svg>
